<?xml version="1.0" standalone="no"?><!DOCTYPE svg PUBLIC "-//W3C//DTD SVG 1.1//EN" "http://www.w3.org/Graphics/SVG/1.1/DTD/svg11.dtd"><svg t="1699500556557" class="icon" viewBox="0 0 1024 1024" version="1.1" xmlns="http://www.w3.org/2000/svg" p-id="18002" xmlns:xlink="http://www.w3.org/1999/xlink" width="200" height="200"><path d="M0 512a512 512 0 1 0 1024 0A512 512 0 0 0 0 512z" fill="#FFFFFF" p-id="18003"></path><path d="M512 0a512 512 0 1 1 0 1024A512 512 0 0 1 512 0z m19.2 258.112c-6.4 5.568-12.8 11.392-18.752 17.28a449.664 449.664 0 0 0-12.48-11.52c-68.224-60.608-136.64-86.144-177.6-62.272-39.232 22.784-51.008 90.432-34.496 175.04 1.664 8.384 3.456 16.64 5.568 25.024a435.328 435.328 0 0 0-27.904 8.896C185.472 438.272 128 482.048 128 527.36c0 46.784 61.184 93.76 144.448 122.24 6.784 2.24 13.504 4.48 20.416 6.4a487.04 487.04 0 0 0-6.016 27.072c-15.744 83.2-3.456 149.248 35.84 171.904 40.512 23.36 108.608-0.64 174.912-58.688 5.248-4.608 10.496-9.408 15.744-14.528 6.592 6.4 13.504 12.608 20.416 18.56 64.192 55.232 127.616 77.568 166.784 54.976 40.512-23.424 53.76-94.4 36.608-180.8a636.864 636.864 0 0 0-4.48-20.224c4.8-1.344 9.408-2.88 14.08-4.352C833.28 621.248 896 574.912 896 527.36c0-45.44-59.136-89.6-140.672-117.632a752.96 752.96 0 0 0-24.32-7.68c1.344-5.504 2.56-11.072 3.712-16.64 18.496-89.344 6.4-161.216-34.56-184.96-39.488-22.592-103.872 0.96-168.96 57.6v0.064z m170.24 404.544c1.472 6.08 2.816 12.16 4.096 18.304 7.296 32.448 8.512 66.176 3.712 99.456a66.688 66.688 0 0 1-24.704 46.976c-23.872 13.824-74.752-4.224-129.664-51.328a670.08 670.08 0 0 1-19.072-17.28c22.976-25.28 44.16-52.16 63.36-80.384a734.976 734.976 0 0 0 102.272-15.744z m-377.216 1.088c33.536 7.232 67.584 12.16 101.76 14.72 19.84 28.032 41.6 54.848 64.896 80.064-4.864 4.672-9.6 9.152-14.464 13.376a274.56 274.56 0 0 1-84.544 52.928c-16.64 7.936-35.84 8.704-52.928 1.92-23.872-13.76-33.792-66.688-20.288-137.984a435.84 435.84 0 0 1 5.568-24.96v-0.064z m233.344 17.088c-13.76 19.008-28.544 37.248-44.352 54.592-16-17.344-31.232-35.52-45.44-54.4 29.888 1.152 59.904 1.152 89.856-0.192zM512 406.4c23.424 0 46.528 0.896 68.864 2.56a1025.28 1025.28 0 0 1 68.992 118.656 994.752 994.752 0 0 1-68.736 119.68c-22.336 1.664-45.568 2.432-69.12 2.432-23.552 0-46.336-0.768-68.416-2.112a911.296 911.296 0 0 1-69.12-119.424 886.272 886.272 0 0 1 68.672-119.232c22.912-1.728 45.888-2.56 68.864-2.56zM357.376 566.016c13.824 26.688 28.928 52.736 45.12 78.08-23.36-2.56-46.592-6.4-69.568-11.264 6.592-21.632 14.848-43.968 24.448-66.816z m309.888-1.152c9.6 21.696 18.048 43.904 25.344 66.432-23.232 5.248-46.784 9.28-70.528 12.032 16.256-25.472 31.36-51.648 45.184-78.464zM302.016 432.64c10.24 32.576 22.464 64.448 36.736 95.36-14.464 31.488-26.88 63.808-37.184 96.768a379.904 379.904 0 0 1-18.56-5.824c-32-10.048-68.288-25.92-94.592-46.848a67.328 67.328 0 0 1-28.16-44.8c0-27.456 47.36-62.592 115.84-86.4 8.512-3.008 17.216-5.76 25.92-8.32z m420.288 0.256c7.808 2.304 15.296 4.672 22.464 7.104 69.952 24 118.976 59.648 118.976 87.04 0 29.376-52.352 67.328-127.232 92.032a313.92 313.92 0 0 1-12.736 3.904 762.24 762.24 0 0 0-38.208-95.68c14.336-30.592 26.624-62.08 36.736-94.336zM512 459.328a68.672 68.672 0 0 0 0 137.408 68.672 68.672 0 1 0 0-137.408z m-110.272-46.208a858.88 858.88 0 0 0-23.04 38.08c-7.488 12.8-14.592 25.792-21.312 39.04a714.368 714.368 0 0 1-24.064-65.408 740.48 740.48 0 0 1 68.48-11.712z m220.544 0c24.128 3.008 47.232 7.04 68.8 11.968a666.24 666.24 0 0 1-24.128 65.152c-7.04-13.248-14.272-26.368-21.76-39.36-7.36-12.8-14.976-25.344-22.912-37.76z m61.632-184.64c25.344 14.528 35.072 73.344 19.2 150.592-1.024 5.12-2.112 10.048-3.456 14.976a767.936 767.936 0 0 0-100.928-15.936 758.336 758.336 0 0 0-63.936-79.616 544.64 544.64 0 0 1 17.6-16c55.744-48.64 107.84-67.712 131.52-54.016z m-205.44 59.52c3.712 3.328 7.424 6.912 11.328 10.496A761.6 761.6 0 0 0 425.472 378.24c-33.92 3.008-67.584 8.192-100.8 15.552a562.304 562.304 0 0 1-5.248-23.232c-14.08-72.576-4.8-127.36 18.88-140.992 25.216-14.72 81.152 6.272 140.16 58.496z m33.792 33.408c15.744 17.152 30.592 35.072 44.416 53.76-29.76-1.408-59.52-1.408-89.216 0 14.08-18.624 29.056-36.544 44.8-53.76z" fill="#00C2D3" p-id="18004"></path></svg>